<?xml version="1.0" encoding="UTF-8" standalone="no"?>
<svg
   xmlns:dc="http://purl.org/dc/elements/1.1/"
   xmlns:cc="http://creativecommons.org/ns#"
   xmlns:rdf="http://www.w3.org/1999/02/22-rdf-syntax-ns#"
   xmlns:svg="http://www.w3.org/2000/svg"
   xmlns="http://www.w3.org/2000/svg"
   xmlns:sodipodi="http://sodipodi.sourceforge.net/DTD/sodipodi-0.dtd"
   xmlns:inkscape="http://www.inkscape.org/namespaces/inkscape"
   version="1.1"
   id="svg2"
   xml:space="preserve"
   width="378.12"
   height="287.10666"
   viewBox="0 0 378.12 287.10666"
   sodipodi:docname="logo_ecam.eps"><metadata
     id="metadata8"><rdf:RDF><cc:Work
         rdf:about=""><dc:format>image/svg+xml</dc:format><dc:type
           rdf:resource="http://purl.org/dc/dcmitype/StillImage" /></cc:Work></rdf:RDF></metadata><defs
     id="defs6" /><sodipodi:namedview
     pagecolor="#ffffff"
     bordercolor="#666666"
     borderopacity="1"
     objecttolerance="10"
     gridtolerance="10"
     guidetolerance="10"
     inkscape:pageopacity="0"
     inkscape:pageshadow="2"
     inkscape:window-width="640"
     inkscape:window-height="480"
     id="namedview4" /><g
     id="g10"
     inkscape:groupmode="layer"
     inkscape:label="ink_ext_XXXXXX"
     transform="matrix(1.3333333,0,0,-1.3333333,0,287.10667)"><g
       id="g12"
       transform="scale(0.1)"><path
         d="m 642.805,451.668 1.668,-185 L 482.805,115 V 73.3398 h 371.668 l 151.657,103.3282 5,-113.3282 L 1114.47,40 l 90,213.34 c 0,0 86.66,-6.66 108.33,-5 L 1329.47,0 1459.47,1.67188 1496.14,235 c 0,0 90,6.68 98.33,8.34 L 1656.14,13.3398 1779.47,26.6719 1781.14,275 c 0,0 88.33,15.012 91.66,16.668 L 1999.47,85 l 113.33,55 -41.67,211.668 71.67,45 165,-173.34 96.67,68.34 -93.34,218.332 78.34,75 -140,153.328 c 0,0 -446.65,-351.66 -894.99,-270 L 2042.82,1020 1937.82,1126.66 692.824,123.34 689.492,451.668 H 877.824 L 1491.15,943.34 h -455 L 487.824,500 l -0.019,-47.512 155,-0.82"
         style="fill:#d7d7d7;fill-opacity:1;fill-rule:nonzero;stroke:none"
         id="path14" /><path
         d="m 1785.44,1176.53 70.06,57.19 201.36,-12.08 -63.63,-51.55 -207.79,6.44"
         style="fill:#d7d7d7;fill-opacity:1;fill-rule:nonzero;stroke:none"
         id="path16" /><path
         d="m 2366.15,1325.52 -0.8,-49.13 -90.22,-71.68 -218.27,16.93 133.7,103.08 175.59,0.8"
         style="fill:#d7d7d7;fill-opacity:1;fill-rule:nonzero;stroke:none"
         id="path18" /><path
         d="m 2429.76,1696 -458.28,1.61 -203.77,-164.29 172.36,-228.73 245.23,196.01 v -36.85 h 13.75 v 47.84 L 2429.76,1696"
         style="fill:#d7d7d7;fill-opacity:1;fill-rule:nonzero;stroke:none"
         id="path20" /><path
         d="M 1436.14,1265.11 1855.5,1233.72 1637.8,1425 Z"
         style="fill:#d7d7d7;fill-opacity:1;fill-rule:nonzero;stroke:none"
         id="path22" /><path
         d="m 1781.13,1177.5 -289.98,-234.16 -188.35,214.16 43.33,35 435,-15"
         style="fill:#d7d7d7;fill-opacity:1;fill-rule:nonzero;stroke:none"
         id="path24" /><path
         d="m 1226.13,1100 76.67,57.5 -33.33,38.34 76.66,-3.34 90.01,72.61 -350.01,24.05 140,-189.16"
         style="fill:#d7d7d7;fill-opacity:1;fill-rule:nonzero;stroke:none"
         id="path26" /><path
         d="m 1160.3,1042.5 112.5,-8.33 -46.67,65.83 z"
         style="fill:#d7d7d7;fill-opacity:1;fill-rule:nonzero;stroke:none"
         id="path28" /><path
         d="m 673.637,939.16 362.513,4.18 124.15,99.16 -368.327,14.16 -118.336,-117.5"
         style="fill:#d7d7d7;fill-opacity:1;fill-rule:nonzero;stroke:none"
         id="path30" /><path
         d="m 589.473,935 84.164,4.16 -300,-247.5 z"
         style="fill:#d7d7d7;fill-opacity:1;fill-rule:nonzero;stroke:none"
         id="path32" /><path
         d="m 305.305,1079.16 95,-145.832 189.168,1.672 118.332,125.83 -402.5,18.33"
         style="fill:#d7d7d7;fill-opacity:1;fill-rule:nonzero;stroke:none"
         id="path34" /><path
         d="m 1389.92,1646.07 21.76,-88.59 23.72,25.17 103.84,-100.8 c -25.53,-10.85 -53.62,-16.85 -83.1,-16.85 -115.29,0 -208.98,91.89 -212.95,206.66 h 87.96 V 1595 h 41.66 v 117.83 l 189.12,152.15 c 64.2,-36.92 107.55,-106.22 107.55,-185.82 0,-79.52 -43.28,-148.77 -107.39,-185.71 l -110.09,106.84 24.91,26.44 z m 66.22,247.26 c 29.05,0 56.72,-5.88 81.96,-16.44 l -165.29,-132.96 v 44.4 h -41.66 v -86.67 h -87.14 c 11.21,107.7 101.89,191.67 212.13,191.67 z m 311.57,-360.01 -65.21,75.45 c 6.68,22.34 10.32,45.93 10.32,70.39 0,117.8 -83.14,216.5 -195.01,242.97 v 231.2 h -110 v -229.01 c -116.87,-22.78 -205,-123.86 -205,-245.16 0,-17.59 1.88,-34.75 5.39,-51.3 l -500.395,-559.94 100,-11.26 500.835,419.81 c 41.95,-29.74 93.45,-47.31 149.16,-47.31 46.51,0 90.07,12.27 127.62,33.59 l 51.55,-33.59 130.74,104.16"
         style="fill:#d7d7d7;fill-opacity:1;fill-rule:nonzero;stroke:none"
         id="path36" /><path
         d="m 2042.82,1020 71.65,55 71.66,-95 25.38,13.328 47.96,-75 -10,-15 171.66,-216.66 2.92,-75 L 2042.82,1020"
         style="fill:#d7d7d7;fill-opacity:1;fill-rule:nonzero;stroke:none"
         id="path38" /><path
         d="M 2042.82,1170.09 2227.8,1162.5 2114.47,1075 Z"
         style="fill:#d7d7d7;fill-opacity:1;fill-rule:nonzero;stroke:none"
         id="path40" /><path
         d="m 2366.15,1157.5 h 63.61 l 5.54,-34.96 177.5,47.55 -176.25,63.63 V 1195 l -88.72,9.07 18.32,-46.57"
         style="fill:#d7d7d7;fill-opacity:1;fill-rule:nonzero;stroke:none"
         id="path42" /><path
         d="M 154.594,1037.48 V 948.691 H 539.785 V 814.871 H 3.875 v 523.579 h 535.91 V 1220.94 H 154.594 v -75.08 H 507.801 V 1037.48 H 154.594"
         style="fill:#293c86;fill-opacity:1;fill-rule:nonzero;stroke:none"
         id="path44" /><path
         d="m 767.684,1073.39 c 0.05,-32.13 0.156,-77.55 0.312,-78.929 2.895,-25.922 24.289,-46.402 85.824,-46.402 h 353.21 V 814.871 H 805.129 c -119.004,0 -187.766,37.438 -192.008,112.309 -0.078,1.34 -0.133,77.15 -0.172,145.58 v 7.81 c 0.039,68.43 0.094,144.23 0.172,145.58 4.242,74.87 73.004,112.3 192.008,112.3 H 1177 V 1205.27 H 853.82 c -61.535,0 -82.929,-20.49 -85.824,-46.39 -0.156,-1.39 -0.262,-46.81 -0.312,-78.94 v -6.55"
         style="fill:#293c86;fill-opacity:1;fill-rule:nonzero;stroke:none"
         id="path46" /><path
         d="m 1701,1055.01 -78.74,148.3 -80.25,-149.23 z M 1471.23,922.469 1415.95,814.871 H 1239.9 l 293.56,523.579 h 178.9 l 293.79,-523.579 h -180.2 l -54.87,108.149 -299.85,-0.551"
         style="fill:#293c86;fill-opacity:1;fill-rule:nonzero;stroke:none"
         id="path48" /><path
         d="m 2037.49,1338.45 h 233.73 l 163.22,-310.11 163.21,310.11 h 233.73 V 814.871 H 2677.3 L 2676,1145.86 2503.63,814.871 h -138.4 L 2192.87,1145.86 V 814.871 h -155.38 v 523.579"
         style="fill:#293c86;fill-opacity:1;fill-rule:nonzero;stroke:none"
         id="path50" /><path
         d="m 52.2852,413.84 c 13.5156,0 21.7187,5.301 21.7187,15.441 v 0.321 c 0,9.488 -7.5664,15.117 -23.1641,15.117 H 19.4648 V 413.84 Z m -5.7891,47.609 c 12.7109,0 21.2383,4.992 21.2383,15.289 v 0.321 c 0,8.851 -7.0899,14.312 -19.7891,14.312 H 19.4648 V 461.449 Z M 0,508.91 h 50.5195 c 12.8672,0 23.0078,-3.539 29.4336,-9.98 4.9844,-4.989 7.5664,-11.09 7.5664,-18.66 v -0.321 c 0,-13.508 -7.7226,-20.75 -16.0859,-25.097 13.1914,-4.5 22.3633,-12.063 22.3633,-27.34 v -0.321 c 0,-20.113 -16.5742,-30.89 -41.6719,-30.89 H 0 V 508.91"
         style="fill:#293c86;fill-opacity:1;fill-rule:nonzero;stroke:none"
         id="path52" /><path
         d="m 164.855,453.078 c 14.157,0 23.165,7.41 23.165,18.832 v 0.32 c 0,12.059 -8.688,18.661 -23.332,18.661 h -28.797 v -37.813 z m -48.75,55.832 h 50.192 c 14.152,0 25.258,-4.18 32.5,-11.269 5.945,-6.11 9.336,-14.473 9.336,-24.282 v -0.328 c 0,-18.492 -11.106,-29.59 -26.875,-34.101 l 30.402,-42.629 h -23.316 l -27.676,39.25 h -24.777 v -39.25 H 116.105 V 508.91"
         style="fill:#293c86;fill-opacity:1;fill-rule:nonzero;stroke:none"
         id="path54" /><path
         d="m 230.605,444.078 v 64.832 h 19.786 v -64.031 c 0,-20.918 10.777,-32.18 28.476,-32.18 17.539,0 28.317,10.621 28.317,31.379 v 64.832 h 19.785 v -63.859 c 0,-33.641 -18.981,-50.52 -48.426,-50.52 -29.277,0 -47.938,16.879 -47.938,49.547"
         style="fill:#293c86;fill-opacity:1;fill-rule:nonzero;stroke:none"
         id="path56" /><path
         d="m 346.547,412.699 11.902,14.16 c 10.778,-9.328 21.555,-14.64 35.551,-14.64 12.227,0 19.941,5.64 19.941,14.16 v 0.332 c 0,8.027 -4.492,12.379 -25.41,17.199 -23.968,5.789 -37.484,12.871 -37.484,33.629 v 0.32 c 0,19.313 16.09,32.661 38.445,32.661 16.414,0 29.446,-4.989 40.86,-14.161 l -10.61,-14.968 c -10.137,7.57 -20.277,11.597 -30.57,11.597 -11.582,0 -18.336,-5.957 -18.336,-13.347 v -0.34 c 0,-8.68 5.141,-12.539 26.707,-17.692 23.801,-5.789 36.199,-14.32 36.199,-32.98 v -0.32 c 0,-21.079 -16.578,-33.618 -40.226,-33.618 -17.215,0 -33.457,5.95 -46.969,18.008"
         style="fill:#293c86;fill-opacity:1;fill-rule:nonzero;stroke:none"
         id="path58" /><path
         d="m 447.852,412.699 11.91,14.16 c 10.777,-9.328 21.554,-14.64 35.547,-14.64 12.234,0 19.949,5.64 19.949,14.16 v 0.332 c 0,8.027 -4.5,12.379 -25.41,17.199 -23.973,5.789 -37.489,12.871 -37.489,33.629 v 0.32 c 0,19.313 16.09,32.661 38.45,32.661 16.41,0 29.441,-4.989 40.859,-14.161 l -10.613,-14.968 c -10.133,7.57 -20.278,11.597 -30.575,11.597 -11.582,0 -18.335,-5.957 -18.335,-13.347 v -0.34 c 0,-8.68 5.148,-12.539 26.71,-17.692 23.801,-5.789 36.196,-14.32 36.196,-32.98 v -0.32 c 0,-21.079 -16.578,-33.618 -40.219,-33.618 -17.219,0 -33.465,5.95 -46.98,18.008"
         style="fill:#293c86;fill-opacity:1;fill-rule:nonzero;stroke:none"
         id="path60" /><path
         d="m 558.332,508.91 h 83.5 V 491.219 H 578.121 V 461.93 h 56.465 v -17.692 h -56.465 v -30.25 h 64.516 V 396.301 H 558.332 V 508.91"
         style="fill:#293c86;fill-opacity:1;fill-rule:nonzero;stroke:none"
         id="path62" /><path
         d="m 666.074,508.91 h 19.785 v -94.601 h 59.207 V 396.301 H 666.074 V 508.91"
         style="fill:#293c86;fill-opacity:1;fill-rule:nonzero;stroke:none"
         id="path64" /><path
         d="m 758.055,412.699 11.902,14.16 c 10.777,-9.328 21.555,-14.64 35.555,-14.64 12.23,0 19.937,5.64 19.937,14.16 v 0.332 c 0,8.027 -4.488,12.379 -25.41,17.199 -23.969,5.789 -37.484,12.871 -37.484,33.629 v 0.32 c 0,19.313 16.09,32.661 38.449,32.661 16.41,0 29.445,-4.989 40.859,-14.161 l -10.609,-14.968 c -10.141,7.57 -20.277,11.597 -30.574,11.597 -11.582,0 -18.332,-5.957 -18.332,-13.347 v -0.34 c 0,-8.68 5.14,-12.539 26.707,-17.692 23.797,-5.789 36.195,-14.32 36.195,-32.98 v -0.32 c 0,-21.079 -16.574,-33.618 -40.223,-33.618 -17.214,0 -33.457,5.95 -46.972,18.008"
         style="fill:#293c86;fill-opacity:1;fill-rule:nonzero;stroke:none"
         id="path66" /><path
         d="m 916.773,508.91 h 83.497 V 491.219 H 936.559 V 461.93 h 56.468 v -17.692 h -56.468 v -30.25 h 64.521 V 396.301 H 916.773 V 508.91"
         style="fill:#293c86;fill-opacity:1;fill-rule:nonzero;stroke:none"
         id="path68" /><path
         d="m 1024.51,508.91 h 18.35 l 60.32,-77.871 v 77.871 h 19.47 V 396.301 h -16.57 l -62.1,80.109 v -80.109 h -19.47 V 508.91"
         style="fill:#293c86;fill-opacity:1;fill-rule:nonzero;stroke:none"
         id="path70" /><path
         d="m 1146.57,452.281 v 0.328 c 0,31.532 24.14,58.231 58.08,58.231 19.63,0 31.69,-5.469 43.28,-15.289 l -12.55,-14.961 c -8.68,7.41 -17.21,12.07 -31.54,12.07 -20.74,0 -36.51,-18.18 -36.51,-39.73 v -0.321 c 0,-23.168 15.28,-40.23 38.28,-40.23 10.62,0 20.28,3.391 27.19,8.543 v 21.066 h -28.79 v 17.211 h 47.94 v -47.301 c -11.1,-9.488 -27.03,-17.539 -46.97,-17.539 -35.24,0 -58.41,25.102 -58.41,57.922"
         style="fill:#293c86;fill-opacity:1;fill-rule:nonzero;stroke:none"
         id="path72" /><path
         d="m 1278.77,508.91 h 19.78 V 396.301 h -19.78 V 508.91"
         style="fill:#293c86;fill-opacity:1;fill-rule:nonzero;stroke:none"
         id="path74" /><path
         d="m 1328.61,508.91 h 18.34 l 60.32,-77.871 v 77.871 h 19.47 V 396.301 h -16.57 l -62.1,80.109 v -80.109 h -19.46 V 508.91"
         style="fill:#293c86;fill-opacity:1;fill-rule:nonzero;stroke:none"
         id="path76" /><path
         d="m 1455.65,508.91 h 83.5 v -17.691 h -63.7 V 461.93 h 56.46 v -17.692 h -56.46 v -30.25 h 64.51 v -17.687 h -84.31 V 508.91"
         style="fill:#293c86;fill-opacity:1;fill-rule:nonzero;stroke:none"
         id="path78" /><path
         d="m 1563.4,508.91 h 83.49 v -17.691 h -63.71 V 461.93 h 56.47 v -17.692 h -56.47 v -30.25 h 64.51 V 396.301 H 1563.4 V 508.91"
         style="fill:#293c86;fill-opacity:1;fill-rule:nonzero;stroke:none"
         id="path80" /><path
         d="m 1719.89,453.078 c 14.15,0 23.16,7.41 23.16,18.832 v 0.32 c 0,12.059 -8.69,18.661 -23.33,18.661 h -28.8 v -37.813 z m -48.75,55.832 h 50.19 c 14.16,0 25.26,-4.18 32.5,-11.269 5.94,-6.11 9.33,-14.473 9.33,-24.282 v -0.328 c 0,-18.492 -11.1,-29.59 -26.87,-34.101 l 30.41,-42.629 h -23.32 l -27.68,39.25 h -24.78 v -39.25 h -19.78 V 508.91"
         style="fill:#293c86;fill-opacity:1;fill-rule:nonzero;stroke:none"
         id="path82" /><path
         d="m 1788.53,508.91 h 19.79 V 396.301 h -19.79 V 508.91"
         style="fill:#293c86;fill-opacity:1;fill-rule:nonzero;stroke:none"
         id="path84" /><path
         d="m 1838.38,508.91 h 18.34 l 60.33,-77.871 v 77.871 h 19.46 V 396.301 h -16.57 l -62.1,80.109 v -80.109 h -19.46 V 508.91"
         style="fill:#293c86;fill-opacity:1;fill-rule:nonzero;stroke:none"
         id="path86" /><path
         d="m 1960.43,452.281 v 0.328 c 0,31.532 24.14,58.231 58.07,58.231 19.63,0 31.69,-5.469 43.27,-15.289 l -12.53,-14.961 c -8.7,7.41 -17.22,12.07 -31.54,12.07 -20.75,0 -36.52,-18.18 -36.52,-39.73 v -0.321 c 0,-23.168 15.29,-40.23 38.29,-40.23 10.61,0 20.27,3.391 27.19,8.543 v 21.066 h -28.8 v 17.211 h 47.94 v -47.301 c -11.1,-9.488 -27.02,-17.539 -46.97,-17.539 -35.24,0 -58.4,25.102 -58.4,57.922"
         style="fill:#293c86;fill-opacity:1;fill-rule:nonzero;stroke:none"
         id="path88" /><path
         d="m 2132.17,412.699 11.91,14.16 c 10.77,-9.328 21.55,-14.64 35.55,-14.64 12.23,0 19.95,5.64 19.95,14.16 v 0.332 c 0,8.027 -4.5,12.379 -25.42,17.199 -23.97,5.789 -37.48,12.871 -37.48,33.629 v 0.32 c 0,19.313 16.08,32.661 38.44,32.661 16.41,0 29.45,-4.989 40.86,-14.161 l -10.6,-14.968 c -10.15,7.57 -20.29,11.597 -30.58,11.597 -11.58,0 -18.34,-5.957 -18.34,-13.347 v -0.34 c 0,-8.68 5.15,-12.539 26.71,-17.692 23.8,-5.789 36.2,-14.32 36.2,-32.98 v -0.32 c 0,-21.079 -16.58,-33.618 -40.22,-33.618 -17.22,0 -33.46,5.95 -46.98,18.008"
         style="fill:#293c86;fill-opacity:1;fill-rule:nonzero;stroke:none"
         id="path90" /><path
         d="m 2237.66,452.281 v 0.328 c 0,32.012 23.98,58.231 58.08,58.231 20.75,0 33.3,-7.238 44.08,-17.531 l -12.71,-14.641 c -9.01,8.363 -18.66,13.992 -31.53,13.992 -21.56,0 -37.17,-17.691 -37.17,-39.73 v -0.321 c 0,-22.05 15.61,-40.058 37.17,-40.058 13.83,0 22.69,5.617 32.34,14.64 l 12.7,-12.882 c -11.74,-12.219 -24.61,-19.95 -45.68,-19.95 -32.82,0 -57.28,25.59 -57.28,57.922"
         style="fill:#293c86;fill-opacity:1;fill-rule:nonzero;stroke:none"
         id="path92" /><path
         d="m 2361.33,508.91 h 19.78 v -46.808 h 53.74 v 46.808 h 19.79 V 396.301 h -19.79 v 47.461 h -53.74 v -47.461 h -19.78 V 508.91"
         style="fill:#293c86;fill-opacity:1;fill-rule:nonzero;stroke:none"
         id="path94" /><path
         d="m 2575.57,452.281 v 0.328 c 0,21.871 -15.92,40.051 -38.29,40.051 -22.37,0 -37.98,-17.859 -37.98,-39.73 v -0.321 c 0,-21.89 15.94,-40.058 38.29,-40.058 22.38,0 37.98,17.859 37.98,39.73 z m -97.01,0 v 0.328 c 0,31.68 24.44,58.231 59.03,58.231 34.59,0 58.74,-26.219 58.74,-57.91 v -0.321 c 0,-31.687 -24.46,-58.25 -59.05,-58.25 -34.59,0 -58.72,26.231 -58.72,57.922"
         style="fill:#293c86;fill-opacity:1;fill-rule:nonzero;stroke:none"
         id="path96" /><path
         d="m 2712.25,452.281 v 0.328 c 0,21.871 -15.92,40.051 -38.28,40.051 -22.37,0 -37.98,-17.859 -37.98,-39.73 v -0.321 c 0,-21.89 15.93,-40.058 38.29,-40.058 22.37,0 37.97,17.859 37.97,39.73 z m -97.01,0 v 0.328 c 0,31.68 24.45,58.231 59.04,58.231 34.59,0 58.72,-26.219 58.72,-57.91 v -0.321 c 0,-31.687 -24.44,-58.25 -59.03,-58.25 -34.59,0 -58.73,26.231 -58.73,57.922"
         style="fill:#293c86;fill-opacity:1;fill-rule:nonzero;stroke:none"
         id="path98" /><path
         d="m 2756.93,508.91 h 19.79 v -94.601 h 59.19 v -18.008 h -78.98 V 508.91"
         style="fill:#293c86;fill-opacity:1;fill-rule:nonzero;stroke:none"
         id="path100" /></g></g></svg>
